<?xml version="1.0" encoding="UTF-8" standalone="no"?>
<!DOCTYPE svg PUBLIC "-//W3C//DTD SVG 1.1//EN"
 "http://www.w3.org/Graphics/SVG/1.1/DTD/svg11.dtd">
<!-- Generated by graphviz version 3.0.0 (20220226.1711)
 -->
<!-- Title: dependencies Pages: 1 -->
<svg width="1179pt" height="247pt"
 viewBox="0.00 0.00 1179.00 246.80" xmlns="http://www.w3.org/2000/svg" xmlns:xlink="http://www.w3.org/1999/xlink">
<g id="graph0" class="graph" transform="scale(1 1) rotate(0) translate(4 242.8)">
<title>dependencies</title>
<polygon fill="white" stroke="transparent" points="-4,4 -4,-242.8 1175,-242.8 1175,4 -4,4"/>
<text text-anchor="middle" x="585.5" y="-8.2" font-family="sans-serif" font-size="14.00">dependencies</text>
<g id="clust1" class="cluster">
<title>cluster_SharedModule</title>
<polygon fill="none" stroke="black" stroke-dasharray="1,5" points="8,-32.8 8,-230.8 1163,-230.8 1163,-32.8 8,-32.8"/>
</g>
<g id="clust11" class="cluster">
<title>cluster_SharedModule_exports</title>
<polygon fill="none" stroke="black" points="16,-170.8 16,-222.8 1155,-222.8 1155,-170.8 16,-170.8"/>
</g>
<g id="clust2" class="cluster">
<title>cluster_SharedModule_declarations</title>
<polygon fill="none" stroke="black" points="28,-40.8 28,-92.8 1144,-92.8 1144,-40.8 28,-40.8"/>
</g>
<!-- DropdownComponent -->
<g id="node1" class="node">
<title>DropdownComponent</title>
<polygon fill="#ffffb3" stroke="black" points="1135.71,-84.8 994.29,-84.8 994.29,-48.8 1135.71,-48.8 1135.71,-84.8"/>
<text text-anchor="middle" x="1065" y="-62.6" font-family="Times,serif" font-size="14.00">DropdownComponent</text>
</g>
<!-- SharedModule -->
<g id="node8" class="node">
<title>SharedModule</title>
<polygon fill="#8dd3c7" stroke="black" points="658.43,-149.8 655.43,-153.8 634.43,-153.8 631.43,-149.8 559.57,-149.8 559.57,-113.8 658.43,-113.8 658.43,-149.8"/>
<text text-anchor="middle" x="609" y="-127.6" font-family="Times,serif" font-size="14.00">SharedModule</text>
</g>
<!-- DropdownComponent&#45;&gt;SharedModule -->
<g id="edge1" class="edge">
<title>DropdownComponent&#45;&gt;SharedModule</title>
<path fill="none" stroke="black" d="M998.52,-85.02C998.52,-103.63 998.52,-129.8 998.52,-129.8 998.52,-129.8 668.33,-129.8 668.33,-129.8"/>
<polygon fill="black" stroke="black" points="668.33,-126.3 658.33,-129.8 668.33,-133.3 668.33,-126.3"/>
</g>
<!-- FooterComponent -->
<g id="node2" class="node">
<title>FooterComponent</title>
<polygon fill="#ffffb3" stroke="black" points="975.88,-84.8 858.12,-84.8 858.12,-48.8 975.88,-48.8 975.88,-84.8"/>
<text text-anchor="middle" x="917" y="-62.6" font-family="Times,serif" font-size="14.00">FooterComponent</text>
</g>
<!-- FooterComponent&#45;&gt;SharedModule -->
<g id="edge2" class="edge">
<title>FooterComponent&#45;&gt;SharedModule</title>
<path fill="none" stroke="black" d="M938.4,-84.83C938.4,-101.86 938.4,-124.8 938.4,-124.8 938.4,-124.8 668.31,-124.8 668.31,-124.8"/>
<polygon fill="black" stroke="black" points="668.31,-121.3 658.31,-124.8 668.31,-128.3 668.31,-121.3"/>
</g>
<!-- HeaderComponent -->
<g id="node3" class="node">
<title>HeaderComponent</title>
<polygon fill="#ffffb3" stroke="black" points="839.75,-84.8 718.25,-84.8 718.25,-48.8 839.75,-48.8 839.75,-84.8"/>
<text text-anchor="middle" x="779" y="-62.6" font-family="Times,serif" font-size="14.00">HeaderComponent</text>
</g>
<!-- HeaderComponent&#45;&gt;SharedModule -->
<g id="edge3" class="edge">
<title>HeaderComponent&#45;&gt;SharedModule</title>
<path fill="none" stroke="black" d="M800.04,-85.04C800.04,-100.37 800.04,-119.8 800.04,-119.8 800.04,-119.8 668.7,-119.8 668.7,-119.8"/>
<polygon fill="black" stroke="black" points="668.7,-116.3 658.7,-119.8 668.69,-123.3 668.7,-116.3"/>
</g>
<!-- LanguageSelectorComponent -->
<g id="node4" class="node">
<title>LanguageSelectorComponent</title>
<polygon fill="#ffffb3" stroke="black" points="700.39,-84.8 517.61,-84.8 517.61,-48.8 700.39,-48.8 700.39,-84.8"/>
<text text-anchor="middle" x="609" y="-62.6" font-family="Times,serif" font-size="14.00">LanguageSelectorComponent</text>
</g>
<!-- LanguageSelectorComponent&#45;&gt;SharedModule -->
<g id="edge4" class="edge">
<title>LanguageSelectorComponent&#45;&gt;SharedModule</title>
<path fill="none" stroke="black" d="M609,-84.91C609,-84.91 609,-103.79 609,-103.79"/>
<polygon fill="black" stroke="black" points="605.5,-103.79 609,-113.79 612.5,-103.79 605.5,-103.79"/>
</g>
<!-- NavComponent -->
<g id="node5" class="node">
<title>NavComponent</title>
<polygon fill="#ffffb3" stroke="black" points="499.16,-84.8 394.84,-84.8 394.84,-48.8 499.16,-48.8 499.16,-84.8"/>
<text text-anchor="middle" x="447" y="-62.6" font-family="Times,serif" font-size="14.00">NavComponent</text>
</g>
<!-- NavComponent&#45;&gt;SharedModule -->
<g id="edge5" class="edge">
<title>NavComponent&#45;&gt;SharedModule</title>
<path fill="none" stroke="black" d="M463.61,-85.04C463.61,-100.37 463.61,-119.8 463.61,-119.8 463.61,-119.8 549.78,-119.8 549.78,-119.8"/>
<polygon fill="black" stroke="black" points="549.78,-123.3 559.78,-119.8 549.78,-116.3 549.78,-123.3"/>
</g>
<!-- PercentageBarComponent -->
<g id="node6" class="node">
<title>PercentageBarComponent</title>
<polygon fill="#ffffb3" stroke="black" points="376.45,-84.8 213.55,-84.8 213.55,-48.8 376.45,-48.8 376.45,-84.8"/>
<text text-anchor="middle" x="295" y="-62.6" font-family="Times,serif" font-size="14.00">PercentageBarComponent</text>
</g>
<!-- PercentageBarComponent&#45;&gt;SharedModule -->
<g id="edge6" class="edge">
<title>PercentageBarComponent&#45;&gt;SharedModule</title>
<path fill="none" stroke="black" d="M319.33,-84.83C319.33,-101.86 319.33,-124.8 319.33,-124.8 319.33,-124.8 549.53,-124.8 549.53,-124.8"/>
<polygon fill="black" stroke="black" points="549.53,-128.3 559.53,-124.8 549.53,-121.3 549.53,-128.3"/>
</g>
<!-- ThumbButtonComponent -->
<g id="node7" class="node">
<title>ThumbButtonComponent</title>
<polygon fill="#ffffb3" stroke="black" points="195.89,-84.8 36.11,-84.8 36.11,-48.8 195.89,-48.8 195.89,-84.8"/>
<text text-anchor="middle" x="116" y="-62.6" font-family="Times,serif" font-size="14.00">ThumbButtonComponent</text>
</g>
<!-- ThumbButtonComponent&#45;&gt;SharedModule -->
<g id="edge7" class="edge">
<title>ThumbButtonComponent&#45;&gt;SharedModule</title>
<path fill="none" stroke="black" d="M191.82,-85.02C191.82,-103.63 191.82,-129.8 191.82,-129.8 191.82,-129.8 549.51,-129.8 549.51,-129.8"/>
<polygon fill="black" stroke="black" points="549.51,-133.3 559.51,-129.8 549.51,-126.3 549.51,-133.3"/>
</g>
<!-- DropdownComponent  -->
<g id="node9" class="node">
<title>DropdownComponent </title>
<polygon fill="#fb8072" stroke="black" points="1147.21,-214.8 1002.79,-214.8 1002.79,-178.8 1147.21,-178.8 1147.21,-214.8"/>
<text text-anchor="middle" x="1075" y="-192.6" font-family="Times,serif" font-size="14.00">DropdownComponent </text>
</g>
<!-- SharedModule&#45;&gt;DropdownComponent  -->
<g id="edge8" class="edge">
<title>SharedModule&#45;&gt;DropdownComponent </title>
<path fill="none" stroke="black" stroke-dasharray="5,2" d="M658.24,-134.8C776.94,-134.8 1069.12,-134.8 1069.12,-134.8 1069.12,-134.8 1069.12,-168.53 1069.12,-168.53"/>
<polygon fill="black" stroke="black" points="1065.63,-168.53 1069.12,-178.53 1072.63,-168.53 1065.63,-168.53"/>
</g>
<!-- FooterComponent  -->
<g id="node10" class="node">
<title>FooterComponent </title>
<polygon fill="#fb8072" stroke="black" points="984.88,-214.8 863.12,-214.8 863.12,-178.8 984.88,-178.8 984.88,-214.8"/>
<text text-anchor="middle" x="924" y="-192.6" font-family="Times,serif" font-size="14.00">FooterComponent </text>
</g>
<!-- SharedModule&#45;&gt;FooterComponent  -->
<g id="edge9" class="edge">
<title>SharedModule&#45;&gt;FooterComponent </title>
<path fill="none" stroke="black" stroke-dasharray="5,2" d="M658.51,-139.8C741.78,-139.8 900.85,-139.8 900.85,-139.8 900.85,-139.8 900.85,-168.76 900.85,-168.76"/>
<polygon fill="black" stroke="black" points="897.35,-168.76 900.85,-178.76 904.35,-168.76 897.35,-168.76"/>
</g>
<!-- HeaderComponent  -->
<g id="node11" class="node">
<title>HeaderComponent </title>
<polygon fill="#fb8072" stroke="black" points="845.75,-214.8 720.25,-214.8 720.25,-178.8 845.75,-178.8 845.75,-214.8"/>
<text text-anchor="middle" x="783" y="-192.6" font-family="Times,serif" font-size="14.00">HeaderComponent </text>
</g>
<!-- SharedModule&#45;&gt;HeaderComponent  -->
<g id="edge10" class="edge">
<title>SharedModule&#45;&gt;HeaderComponent </title>
<path fill="none" stroke="black" stroke-dasharray="5,2" d="M658.51,-144.8C702.61,-144.8 760.21,-144.8 760.21,-144.8 760.21,-144.8 760.21,-168.61 760.21,-168.61"/>
<polygon fill="black" stroke="black" points="756.71,-168.61 760.21,-178.61 763.71,-168.61 756.71,-168.61"/>
</g>
<!-- LanguageSelectorComponent  -->
<g id="node12" class="node">
<title>LanguageSelectorComponent </title>
<polygon fill="#fb8072" stroke="black" points="701.89,-214.8 516.11,-214.8 516.11,-178.8 701.89,-178.8 701.89,-214.8"/>
<text text-anchor="middle" x="609" y="-192.6" font-family="Times,serif" font-size="14.00">LanguageSelectorComponent </text>
</g>
<!-- SharedModule&#45;&gt;LanguageSelectorComponent  -->
<g id="edge11" class="edge">
<title>SharedModule&#45;&gt;LanguageSelectorComponent </title>
<path fill="none" stroke="black" stroke-dasharray="5,2" d="M609,-149.91C609,-149.91 609,-168.79 609,-168.79"/>
<polygon fill="black" stroke="black" points="605.5,-168.79 609,-178.79 612.5,-168.79 605.5,-168.79"/>
</g>
<!-- NavComponent  -->
<g id="node13" class="node">
<title>NavComponent </title>
<polygon fill="#fb8072" stroke="black" points="498.16,-214.8 389.84,-214.8 389.84,-178.8 498.16,-178.8 498.16,-214.8"/>
<text text-anchor="middle" x="444" y="-192.6" font-family="Times,serif" font-size="14.00">NavComponent </text>
</g>
<!-- SharedModule&#45;&gt;NavComponent  -->
<g id="edge12" class="edge">
<title>SharedModule&#45;&gt;NavComponent </title>
<path fill="none" stroke="black" stroke-dasharray="5,2" d="M559.38,-144.8C506.14,-144.8 429.14,-144.8 429.14,-144.8 429.14,-144.8 429.14,-168.61 429.14,-168.61"/>
<polygon fill="black" stroke="black" points="425.64,-168.61 429.14,-178.61 432.64,-168.61 425.64,-168.61"/>
</g>
<!-- PercentageBarComponent  -->
<g id="node14" class="node">
<title>PercentageBarComponent </title>
<polygon fill="#fb8072" stroke="black" points="372.45,-214.8 205.55,-214.8 205.55,-178.8 372.45,-178.8 372.45,-214.8"/>
<text text-anchor="middle" x="289" y="-192.6" font-family="Times,serif" font-size="14.00">PercentageBarComponent </text>
</g>
<!-- SharedModule&#45;&gt;PercentageBarComponent  -->
<g id="edge13" class="edge">
<title>SharedModule&#45;&gt;PercentageBarComponent </title>
<path fill="none" stroke="black" stroke-dasharray="5,2" d="M559.55,-139.8C464.68,-139.8 266.42,-139.8 266.42,-139.8 266.42,-139.8 266.42,-168.76 266.42,-168.76"/>
<polygon fill="black" stroke="black" points="262.92,-168.76 266.42,-178.76 269.92,-168.76 262.92,-168.76"/>
</g>
<!-- ThumbButtonComponent  -->
<g id="node15" class="node">
<title>ThumbButtonComponent </title>
<polygon fill="#fb8072" stroke="black" points="187.89,-214.8 24.11,-214.8 24.11,-178.8 187.89,-178.8 187.89,-214.8"/>
<text text-anchor="middle" x="106" y="-192.6" font-family="Times,serif" font-size="14.00">ThumbButtonComponent </text>
</g>
<!-- SharedModule&#45;&gt;ThumbButtonComponent  -->
<g id="edge14" class="edge">
<title>SharedModule&#45;&gt;ThumbButtonComponent </title>
<path fill="none" stroke="black" stroke-dasharray="5,2" d="M559.52,-134.8C433.77,-134.8 111.88,-134.8 111.88,-134.8 111.88,-134.8 111.88,-168.53 111.88,-168.53"/>
<polygon fill="black" stroke="black" points="108.38,-168.53 111.88,-178.53 115.38,-168.53 108.38,-168.53"/>
</g>
</g>
</svg>
