<?xml version="1.0" encoding="UTF-8" standalone="no"?>
<!DOCTYPE svg PUBLIC "-//W3C//DTD SVG 1.1//EN"
 "http://www.w3.org/Graphics/SVG/1.1/DTD/svg11.dtd">
<!-- Generated by graphviz version 3.0.0 (20220226.1711)
 -->
<!-- Title: dependencies Pages: 1 -->
<svg width="1412pt" height="174pt"
 viewBox="0.00 0.00 1412.00 173.80" xmlns="http://www.w3.org/2000/svg" xmlns:xlink="http://www.w3.org/1999/xlink">
<g id="graph0" class="graph" transform="scale(1 1) rotate(0) translate(4 169.8)">
<title>dependencies</title>
<polygon fill="white" stroke="transparent" points="-4,4 -4,-169.8 1408,-169.8 1408,4 -4,4"/>
<text text-anchor="middle" x="702" y="-8.2" font-family="sans-serif" font-size="14.00">dependencies</text>
<g id="clust1" class="cluster">
<title>cluster_HomeModule</title>
<polygon fill="none" stroke="black" stroke-dasharray="1,5" points="8,-32.8 8,-157.8 1396,-157.8 1396,-32.8 8,-32.8"/>
</g>
<g id="clust8" class="cluster">
<title>cluster_HomeModule_imports</title>
<polygon fill="none" stroke="black" points="1117,-40.8 1117,-92.8 1388,-92.8 1388,-40.8 1117,-40.8"/>
</g>
<g id="clust11" class="cluster">
<title>cluster_HomeModule_providers</title>
<polygon fill="none" stroke="black" points="823,-40.8 823,-92.8 1109,-92.8 1109,-40.8 823,-40.8"/>
</g>
<g id="clust2" class="cluster">
<title>cluster_HomeModule_declarations</title>
<polygon fill="none" stroke="black" points="16,-40.8 16,-92.8 815,-92.8 815,-40.8 16,-40.8"/>
</g>
<!-- AsideAddNameComponent -->
<g id="node1" class="node">
<title>AsideAddNameComponent</title>
<polygon fill="#ffffb3" stroke="black" points="806.53,-84.8 635.47,-84.8 635.47,-48.8 806.53,-48.8 806.53,-84.8"/>
<text text-anchor="middle" x="721" y="-62.6" font-family="Times,serif" font-size="14.00">AsideAddNameComponent</text>
</g>
<!-- HomeModule -->
<g id="node6" class="node">
<title>HomeModule</title>
<polygon fill="#8dd3c7" stroke="black" points="767.77,-149.8 764.77,-153.8 743.77,-153.8 740.77,-149.8 674.23,-149.8 674.23,-113.8 767.77,-113.8 767.77,-149.8"/>
<text text-anchor="middle" x="721" y="-127.6" font-family="Times,serif" font-size="14.00">HomeModule</text>
</g>
<!-- AsideAddNameComponent&#45;&gt;HomeModule -->
<g id="edge1" class="edge">
<title>AsideAddNameComponent&#45;&gt;HomeModule</title>
<path fill="none" stroke="black" d="M721,-84.91C721,-84.91 721,-103.79 721,-103.79"/>
<polygon fill="black" stroke="black" points="717.5,-103.79 721,-113.79 724.5,-103.79 717.5,-103.79"/>
</g>
<!-- AsideSpeakOutComponent -->
<g id="node2" class="node">
<title>AsideSpeakOutComponent</title>
<polygon fill="#ffffb3" stroke="black" points="617.71,-84.8 448.29,-84.8 448.29,-48.8 617.71,-48.8 617.71,-84.8"/>
<text text-anchor="middle" x="533" y="-62.6" font-family="Times,serif" font-size="14.00">AsideSpeakOutComponent</text>
</g>
<!-- AsideSpeakOutComponent&#45;&gt;HomeModule -->
<g id="edge2" class="edge">
<title>AsideSpeakOutComponent&#45;&gt;HomeModule</title>
<path fill="none" stroke="black" d="M533,-84.81C533,-100.85 533,-121.8 533,-121.8 533,-121.8 664.04,-121.8 664.04,-121.8"/>
<polygon fill="black" stroke="black" points="664.04,-125.3 674.04,-121.8 664.04,-118.3 664.04,-125.3"/>
</g>
<!-- HomeContainer -->
<g id="node3" class="node">
<title>HomeContainer</title>
<polygon fill="#ffffb3" stroke="black" points="430.92,-84.8 325.08,-84.8 325.08,-48.8 430.92,-48.8 430.92,-84.8"/>
<text text-anchor="middle" x="378" y="-62.6" font-family="Times,serif" font-size="14.00">HomeContainer</text>
</g>
<!-- HomeContainer&#45;&gt;HomeModule -->
<g id="edge3" class="edge">
<title>HomeContainer&#45;&gt;HomeModule</title>
<path fill="none" stroke="black" d="M378,-85.07C378,-103.36 378,-128.8 378,-128.8 378,-128.8 664.03,-128.8 664.03,-128.8"/>
<polygon fill="black" stroke="black" points="664.03,-132.3 674.03,-128.8 664.03,-125.3 664.03,-132.3"/>
</g>
<!-- RulingComponent -->
<g id="node4" class="node">
<title>RulingComponent</title>
<polygon fill="#ffffb3" stroke="black" points="307.95,-84.8 188.05,-84.8 188.05,-48.8 307.95,-48.8 307.95,-84.8"/>
<text text-anchor="middle" x="248" y="-62.6" font-family="Times,serif" font-size="14.00">RulingComponent</text>
</g>
<!-- RulingComponent&#45;&gt;HomeModule -->
<g id="edge4" class="edge">
<title>RulingComponent&#45;&gt;HomeModule</title>
<path fill="none" stroke="black" d="M248,-84.93C248,-105.37 248,-135.8 248,-135.8 248,-135.8 663.92,-135.8 663.92,-135.8"/>
<polygon fill="black" stroke="black" points="663.92,-139.3 673.92,-135.8 663.92,-132.3 663.92,-139.3"/>
</g>
<!-- RulingsListComponent -->
<g id="node5" class="node">
<title>RulingsListComponent</title>
<polygon fill="#ffffb3" stroke="black" points="170.18,-84.8 23.82,-84.8 23.82,-48.8 170.18,-48.8 170.18,-84.8"/>
<text text-anchor="middle" x="97" y="-62.6" font-family="Times,serif" font-size="14.00">RulingsListComponent</text>
</g>
<!-- RulingsListComponent&#45;&gt;HomeModule -->
<g id="edge5" class="edge">
<title>RulingsListComponent&#45;&gt;HomeModule</title>
<path fill="none" stroke="black" d="M97,-84.81C97,-107.29 97,-142.8 97,-142.8 97,-142.8 664.1,-142.8 664.1,-142.8"/>
<polygon fill="black" stroke="black" points="664.1,-146.3 674.1,-142.8 664.1,-139.3 664.1,-146.3"/>
</g>
<!-- HomeRoutingModule -->
<g id="node7" class="node">
<title>HomeRoutingModule</title>
<polygon fill="#8dd3c7" stroke="black" points="1380.38,-84.8 1377.38,-88.8 1356.38,-88.8 1353.38,-84.8 1241.62,-84.8 1241.62,-48.8 1380.38,-48.8 1380.38,-84.8"/>
<text text-anchor="middle" x="1311" y="-62.6" font-family="Times,serif" font-size="14.00">HomeRoutingModule</text>
</g>
<!-- HomeRoutingModule&#45;&gt;HomeModule -->
<g id="edge6" class="edge">
<title>HomeRoutingModule&#45;&gt;HomeModule</title>
<path fill="none" stroke="black" d="M1311,-84.81C1311,-107.29 1311,-142.8 1311,-142.8 1311,-142.8 777.79,-142.8 777.79,-142.8"/>
<polygon fill="black" stroke="black" points="777.79,-139.3 767.79,-142.8 777.79,-146.3 777.79,-139.3"/>
</g>
<!-- SharedModule -->
<g id="node8" class="node">
<title>SharedModule</title>
<polygon fill="#8dd3c7" stroke="black" points="1223.43,-84.8 1220.43,-88.8 1199.43,-88.8 1196.43,-84.8 1124.57,-84.8 1124.57,-48.8 1223.43,-48.8 1223.43,-84.8"/>
<text text-anchor="middle" x="1174" y="-62.6" font-family="Times,serif" font-size="14.00">SharedModule</text>
</g>
<!-- SharedModule&#45;&gt;HomeModule -->
<g id="edge7" class="edge">
<title>SharedModule&#45;&gt;HomeModule</title>
<path fill="none" stroke="black" d="M1174,-84.93C1174,-105.37 1174,-135.8 1174,-135.8 1174,-135.8 777.77,-135.8 777.77,-135.8"/>
<polygon fill="black" stroke="black" points="777.77,-132.3 767.77,-135.8 777.77,-139.3 777.77,-132.3"/>
</g>
<!-- HomeFacade -->
<g id="node9" class="node">
<title>HomeFacade</title>
<ellipse fill="#fdb462" stroke="black" cx="1039" cy="-66.8" rx="61.96" ry="18"/>
<text text-anchor="middle" x="1039" y="-62.6" font-family="Times,serif" font-size="14.00">HomeFacade</text>
</g>
<!-- HomeFacade&#45;&gt;HomeModule -->
<g id="edge8" class="edge">
<title>HomeFacade&#45;&gt;HomeModule</title>
<path fill="none" stroke="black" d="M1039,-85.07C1039,-103.36 1039,-128.8 1039,-128.8 1039,-128.8 777.92,-128.8 777.92,-128.8"/>
<polygon fill="black" stroke="black" points="777.92,-125.3 767.92,-128.8 777.92,-132.3 777.92,-125.3"/>
</g>
<!-- HomeService -->
<g id="node10" class="node">
<title>HomeService</title>
<ellipse fill="#fdb462" stroke="black" cx="895" cy="-66.8" rx="63.69" ry="18"/>
<text text-anchor="middle" x="895" y="-62.6" font-family="Times,serif" font-size="14.00">HomeService</text>
</g>
<!-- HomeService&#45;&gt;HomeModule -->
<g id="edge9" class="edge">
<title>HomeService&#45;&gt;HomeModule</title>
<path fill="none" stroke="black" d="M895,-84.81C895,-100.85 895,-121.8 895,-121.8 895,-121.8 778.09,-121.8 778.09,-121.8"/>
<polygon fill="black" stroke="black" points="778.09,-118.3 768.09,-121.8 778.09,-125.3 778.09,-118.3"/>
</g>
</g>
</svg>
