<?xml version="1.0" encoding="UTF-8" standalone="no"?>
<!DOCTYPE svg PUBLIC "-//W3C//DTD SVG 1.1//EN"
 "http://www.w3.org/Graphics/SVG/1.1/DTD/svg11.dtd">
<!-- Generated by graphviz version 3.0.0 (20220226.1711)
 -->
<!-- Title: dependencies Pages: 1 -->
<svg width="773pt" height="247pt"
 viewBox="0.00 0.00 773.00 246.80" xmlns="http://www.w3.org/2000/svg" xmlns:xlink="http://www.w3.org/1999/xlink">
<g id="graph0" class="graph" transform="scale(1 1) rotate(0) translate(4 242.8)">
<title>dependencies</title>
<polygon fill="white" stroke="transparent" points="-4,4 -4,-242.8 769,-242.8 769,4 -4,4"/>
<text text-anchor="middle" x="382.5" y="-8.2" font-family="sans-serif" font-size="14.00">dependencies</text>
<g id="clust1" class="cluster">
<title>cluster_AppModule</title>
<polygon fill="none" stroke="black" stroke-dasharray="1,5" points="8,-32.8 8,-230.8 757,-230.8 757,-32.8 8,-32.8"/>
</g>
<g id="clust2" class="cluster">
<title>cluster_AppModule_declarations</title>
<polygon fill="none" stroke="black" points="627,-40.8 627,-92.8 749,-92.8 749,-40.8 627,-40.8"/>
</g>
<g id="clust4" class="cluster">
<title>cluster_AppModule_imports</title>
<polygon fill="none" stroke="black" points="358,-40.8 358,-92.8 619,-92.8 619,-40.8 358,-40.8"/>
</g>
<g id="clust7" class="cluster">
<title>cluster_AppModule_providers</title>
<polygon fill="none" stroke="black" points="16,-40.8 16,-92.8 350,-92.8 350,-40.8 16,-40.8"/>
</g>
<g id="clust6" class="cluster">
<title>cluster_AppModule_bootstrap</title>
<polygon fill="none" stroke="black" points="353,-170.8 353,-222.8 477,-222.8 477,-170.8 353,-170.8"/>
</g>
<!-- AppComponent -->
<g id="node1" class="node">
<title>AppComponent</title>
<polygon fill="#ffffb3" stroke="black" points="740.94,-84.8 635.06,-84.8 635.06,-48.8 740.94,-48.8 740.94,-84.8"/>
<text text-anchor="middle" x="688" y="-62.6" font-family="Times,serif" font-size="14.00">AppComponent</text>
</g>
<!-- AppModule -->
<g id="node2" class="node">
<title>AppModule</title>
<polygon fill="#8dd3c7" stroke="black" points="456.66,-149.8 453.66,-153.8 432.66,-153.8 429.66,-149.8 373.34,-149.8 373.34,-113.8 456.66,-113.8 456.66,-149.8"/>
<text text-anchor="middle" x="415" y="-127.6" font-family="Times,serif" font-size="14.00">AppModule</text>
</g>
<!-- AppComponent&#45;&gt;AppModule -->
<g id="edge1" class="edge">
<title>AppComponent&#45;&gt;AppModule</title>
<path fill="none" stroke="black" d="M688,-85.08C688,-106.12 688,-137.8 688,-137.8 688,-137.8 466.76,-137.8 466.76,-137.8"/>
<polygon fill="black" stroke="black" points="466.76,-134.3 456.76,-137.8 466.76,-141.3 466.76,-134.3"/>
</g>
<!-- AppComponent  -->
<g id="node5" class="node">
<title>AppComponent </title>
<polygon fill="#80b1d3" stroke="black" points="469.44,-214.8 360.56,-214.8 360.56,-178.8 469.44,-178.8 469.44,-214.8"/>
<text text-anchor="middle" x="415" y="-192.6" font-family="Times,serif" font-size="14.00">AppComponent </text>
</g>
<!-- AppModule&#45;&gt;AppComponent  -->
<g id="edge4" class="edge">
<title>AppModule&#45;&gt;AppComponent </title>
<path fill="none" stroke="black" stroke-dasharray="1,5" d="M415,-149.91C415,-149.91 415,-168.79 415,-168.79"/>
<polygon fill="black" stroke="black" points="411.5,-168.79 415,-178.79 418.5,-168.79 411.5,-168.79"/>
</g>
<!-- AppRoutingModule -->
<g id="node3" class="node">
<title>AppRoutingModule</title>
<polygon fill="#8dd3c7" stroke="black" points="611.28,-84.8 608.28,-88.8 587.28,-88.8 584.28,-84.8 482.72,-84.8 482.72,-48.8 611.28,-48.8 611.28,-84.8"/>
<text text-anchor="middle" x="547" y="-62.6" font-family="Times,serif" font-size="14.00">AppRoutingModule</text>
</g>
<!-- AppRoutingModule&#45;&gt;AppModule -->
<g id="edge2" class="edge">
<title>AppRoutingModule&#45;&gt;AppModule</title>
<path fill="none" stroke="black" d="M547,-84.82C547,-102.17 547,-125.8 547,-125.8 547,-125.8 466.77,-125.8 466.77,-125.8"/>
<polygon fill="black" stroke="black" points="466.77,-122.3 456.77,-125.8 466.77,-129.3 466.77,-122.3"/>
</g>
<!-- SharedModule -->
<g id="node4" class="node">
<title>SharedModule</title>
<polygon fill="#8dd3c7" stroke="black" points="464.43,-84.8 461.43,-88.8 440.43,-88.8 437.43,-84.8 365.57,-84.8 365.57,-48.8 464.43,-48.8 464.43,-84.8"/>
<text text-anchor="middle" x="415" y="-62.6" font-family="Times,serif" font-size="14.00">SharedModule</text>
</g>
<!-- SharedModule&#45;&gt;AppModule -->
<g id="edge3" class="edge">
<title>SharedModule&#45;&gt;AppModule</title>
<path fill="none" stroke="black" d="M415,-84.91C415,-84.91 415,-103.79 415,-103.79"/>
<polygon fill="black" stroke="black" points="411.5,-103.79 415,-113.79 418.5,-103.79 411.5,-103.79"/>
</g>
<!-- CommonFacade -->
<g id="node6" class="node">
<title>CommonFacade</title>
<ellipse fill="#fdb462" stroke="black" cx="268" cy="-66.8" rx="74.16" ry="18"/>
<text text-anchor="middle" x="268" y="-62.6" font-family="Times,serif" font-size="14.00">CommonFacade</text>
</g>
<!-- CommonFacade&#45;&gt;AppModule -->
<g id="edge5" class="edge">
<title>CommonFacade&#45;&gt;AppModule</title>
<path fill="none" stroke="black" d="M268,-84.82C268,-102.17 268,-125.8 268,-125.8 268,-125.8 363.27,-125.8 363.27,-125.8"/>
<polygon fill="black" stroke="black" points="363.27,-129.3 373.27,-125.8 363.27,-122.3 363.27,-129.3"/>
</g>
<!-- CommonService -->
<g id="node7" class="node">
<title>CommonService</title>
<ellipse fill="#fdb462" stroke="black" cx="100" cy="-66.8" rx="75.89" ry="18"/>
<text text-anchor="middle" x="100" y="-62.6" font-family="Times,serif" font-size="14.00">CommonService</text>
</g>
<!-- CommonService&#45;&gt;AppModule -->
<g id="edge6" class="edge">
<title>CommonService&#45;&gt;AppModule</title>
<path fill="none" stroke="black" d="M100,-85.08C100,-106.12 100,-137.8 100,-137.8 100,-137.8 363.17,-137.8 363.17,-137.8"/>
<polygon fill="black" stroke="black" points="363.17,-141.3 373.17,-137.8 363.17,-134.3 363.17,-141.3"/>
</g>
</g>
</svg>
