<?xml version="1.0" encoding="UTF-8" standalone="no"?>
<!DOCTYPE svg PUBLIC "-//W3C//DTD SVG 1.1//EN"
 "http://www.w3.org/Graphics/SVG/1.1/DTD/svg11.dtd">
<!-- Generated by graphviz version 3.0.0 (20220226.1711)
 -->
<!-- Title: dependencies Pages: 1 -->
<svg width="296pt" height="247pt"
 viewBox="0.00 0.00 296.00 246.80" xmlns="http://www.w3.org/2000/svg" xmlns:xlink="http://www.w3.org/1999/xlink">
<g id="graph0" class="graph" transform="scale(1 1) rotate(0) translate(4 242.8)">
<title>dependencies</title>
<polygon fill="white" stroke="transparent" points="-4,4 -4,-242.8 292,-242.8 292,4 -4,4"/>
<text text-anchor="middle" x="144" y="-8.2" font-family="sans-serif" font-size="14.00">dependencies</text>
<g id="clust1" class="cluster">
<title>cluster_GlobalPipesModule</title>
<polygon fill="none" stroke="black" stroke-dasharray="1,5" points="8,-32.8 8,-230.8 280,-230.8 280,-32.8 8,-32.8"/>
</g>
<g id="clust2" class="cluster">
<title>cluster_GlobalPipesModule_declarations</title>
<polygon fill="none" stroke="black" points="20,-40.8 20,-92.8 268,-92.8 268,-40.8 20,-40.8"/>
</g>
<g id="clust6" class="cluster">
<title>cluster_GlobalPipesModule_exports</title>
<polygon fill="none" stroke="black" points="16,-170.8 16,-222.8 272,-222.8 272,-170.8 16,-170.8"/>
</g>
<!-- PercentagePipe -->
<g id="node1" class="node">
<title>PercentagePipe</title>
<polygon fill="#ffffb3" stroke="black" points="260.3,-84.8 157.7,-84.8 157.7,-48.8 260.3,-48.8 260.3,-84.8"/>
<text text-anchor="middle" x="209" y="-62.6" font-family="Times,serif" font-size="14.00">PercentagePipe</text>
</g>
<!-- GlobalPipesModule -->
<g id="node3" class="node">
<title>GlobalPipesModule</title>
<polygon fill="#8dd3c7" stroke="black" points="148.99,-149.8 145.99,-153.8 124.99,-153.8 121.99,-149.8 21.01,-149.8 21.01,-113.8 148.99,-113.8 148.99,-149.8"/>
<text text-anchor="middle" x="85" y="-127.6" font-family="Times,serif" font-size="14.00">GlobalPipesModule</text>
</g>
<!-- PercentagePipe&#45;&gt;GlobalPipesModule -->
<g id="edge1" class="edge">
<title>PercentagePipe&#45;&gt;GlobalPipesModule</title>
<path fill="none" stroke="black" d="M157.64,-66.8C149.98,-66.8 144.6,-66.8 144.6,-66.8 144.6,-66.8 144.6,-103.69 144.6,-103.69"/>
<polygon fill="black" stroke="black" points="141.1,-103.69 144.6,-113.69 148.1,-103.69 141.1,-103.69"/>
</g>
<!-- RelativetimePipe -->
<g id="node2" class="node">
<title>RelativetimePipe</title>
<polygon fill="#ffffb3" stroke="black" points="140.42,-84.8 27.58,-84.8 27.58,-48.8 140.42,-48.8 140.42,-84.8"/>
<text text-anchor="middle" x="84" y="-62.6" font-family="Times,serif" font-size="14.00">RelativetimePipe</text>
</g>
<!-- RelativetimePipe&#45;&gt;GlobalPipesModule -->
<g id="edge2" class="edge">
<title>RelativetimePipe&#45;&gt;GlobalPipesModule</title>
<path fill="none" stroke="black" d="M84,-84.91C84,-84.91 84,-103.79 84,-103.79"/>
<polygon fill="black" stroke="black" points="80.5,-103.79 84,-113.79 87.5,-103.79 80.5,-103.79"/>
</g>
<!-- PercentagePipe  -->
<g id="node4" class="node">
<title>PercentagePipe </title>
<polygon fill="#fb8072" stroke="black" points="263.8,-214.8 158.2,-214.8 158.2,-178.8 263.8,-178.8 263.8,-214.8"/>
<text text-anchor="middle" x="211" y="-192.6" font-family="Times,serif" font-size="14.00">PercentagePipe </text>
</g>
<!-- GlobalPipesModule&#45;&gt;PercentagePipe  -->
<g id="edge3" class="edge">
<title>GlobalPipesModule&#45;&gt;PercentagePipe </title>
<path fill="none" stroke="black" stroke-dasharray="5,2" d="M144.48,-149.91C144.48,-169.14 144.48,-196.8 144.48,-196.8 144.48,-196.8 147.94,-196.8 147.94,-196.8"/>
<polygon fill="black" stroke="black" points="147.94,-200.3 157.94,-196.8 147.94,-193.3 147.94,-200.3"/>
</g>
<!-- RelativetimePipe  -->
<g id="node5" class="node">
<title>RelativetimePipe </title>
<polygon fill="#fb8072" stroke="black" points="139.92,-214.8 24.08,-214.8 24.08,-178.8 139.92,-178.8 139.92,-214.8"/>
<text text-anchor="middle" x="82" y="-192.6" font-family="Times,serif" font-size="14.00">RelativetimePipe </text>
</g>
<!-- GlobalPipesModule&#45;&gt;RelativetimePipe  -->
<g id="edge4" class="edge">
<title>GlobalPipesModule&#45;&gt;RelativetimePipe </title>
<path fill="none" stroke="black" stroke-dasharray="5,2" d="M82,-149.91C82,-149.91 82,-168.79 82,-168.79"/>
<polygon fill="black" stroke="black" points="78.5,-168.79 82,-178.79 85.5,-168.79 78.5,-168.79"/>
</g>
</g>
</svg>
